<svg xmlns="http://www.w3.org/2000/svg" width="1280" height="800" viewBox="0 0 1280 800">
  <defs>
    <linearGradient id="bg" x1="0" y1="0" x2="1" y2="1">
      <stop offset="0" stop-color="#1b1913"/>
      <stop offset="1" stop-color="#252017"/>
    </linearGradient>
    <linearGradient id="acc" x1="0" y1="0" x2="1" y2="0">
      <stop offset="0" stop-color="#7f9b6b"/>
      <stop offset="1" stop-color="#4f6b45"/>
    </linearGradient>
  </defs>
  <rect width="1280" height="800" fill="url(#bg)"/>
  <g opacity="0.10" stroke="#e9e2d0" stroke-width="1">
    <circle cx="120" cy="500" r="3" fill="#e9e2d0" stroke="none"/><circle cx="120" cy="590" r="3" fill="#e9e2d0" stroke="none"/><circle cx="120" cy="680" r="3" fill="#e9e2d0" stroke="none"/><circle cx="120" cy="770" r="3" fill="#e9e2d0" stroke="none"/><circle cx="210" cy="500" r="3" fill="#e9e2d0" stroke="none"/><circle cx="210" cy="590" r="3" fill="#e9e2d0" stroke="none"/><circle cx="210" cy="680" r="3" fill="#e9e2d0" stroke="none"/><circle cx="210" cy="770" r="3" fill="#e9e2d0" stroke="none"/><circle cx="300" cy="500" r="3" fill="#e9e2d0" stroke="none"/><circle cx="300" cy="590" r="3" fill="#e9e2d0" stroke="none"/><circle cx="300" cy="680" r="3" fill="#e9e2d0" stroke="none"/><circle cx="300" cy="770" r="3" fill="#e9e2d0" stroke="none"/><circle cx="390" cy="500" r="3" fill="#e9e2d0" stroke="none"/><circle cx="390" cy="590" r="3" fill="#e9e2d0" stroke="none"/><circle cx="390" cy="680" r="3" fill="#e9e2d0" stroke="none"/><circle cx="390" cy="770" r="3" fill="#e9e2d0" stroke="none"/><circle cx="480" cy="500" r="3" fill="#e9e2d0" stroke="none"/><circle cx="480" cy="590" r="3" fill="#e9e2d0" stroke="none"/><circle cx="480" cy="680" r="3" fill="#e9e2d0" stroke="none"/><circle cx="480" cy="770" r="3" fill="#e9e2d0" stroke="none"/><circle cx="570" cy="500" r="3" fill="#e9e2d0" stroke="none"/><circle cx="570" cy="590" r="3" fill="#e9e2d0" stroke="none"/><circle cx="570" cy="680" r="3" fill="#e9e2d0" stroke="none"/><circle cx="570" cy="770" r="3" fill="#e9e2d0" stroke="none"/><circle cx="660" cy="500" r="3" fill="#e9e2d0" stroke="none"/><circle cx="660" cy="590" r="3" fill="#e9e2d0" stroke="none"/><circle cx="660" cy="680" r="3" fill="#e9e2d0" stroke="none"/><circle cx="660" cy="770" r="3" fill="#e9e2d0" stroke="none"/><circle cx="750" cy="500" r="3" fill="#e9e2d0" stroke="none"/><circle cx="750" cy="590" r="3" fill="#e9e2d0" stroke="none"/><circle cx="750" cy="680" r="3" fill="#e9e2d0" stroke="none"/><circle cx="750" cy="770" r="3" fill="#e9e2d0" stroke="none"/><circle cx="840" cy="500" r="3" fill="#e9e2d0" stroke="none"/><circle cx="840" cy="590" r="3" fill="#e9e2d0" stroke="none"/><circle cx="840" cy="680" r="3" fill="#e9e2d0" stroke="none"/><circle cx="840" cy="770" r="3" fill="#e9e2d0" stroke="none"/><circle cx="930" cy="500" r="3" fill="#e9e2d0" stroke="none"/><circle cx="930" cy="590" r="3" fill="#e9e2d0" stroke="none"/><circle cx="930" cy="680" r="3" fill="#e9e2d0" stroke="none"/><circle cx="930" cy="770" r="3" fill="#e9e2d0" stroke="none"/><circle cx="1020" cy="500" r="3" fill="#e9e2d0" stroke="none"/><circle cx="1020" cy="590" r="3" fill="#e9e2d0" stroke="none"/><circle cx="1020" cy="680" r="3" fill="#e9e2d0" stroke="none"/><circle cx="1020" cy="770" r="3" fill="#e9e2d0" stroke="none"/><circle cx="1110" cy="500" r="3" fill="#e9e2d0" stroke="none"/><circle cx="1110" cy="590" r="3" fill="#e9e2d0" stroke="none"/><circle cx="1110" cy="680" r="3" fill="#e9e2d0" stroke="none"/><circle cx="1110" cy="770" r="3" fill="#e9e2d0" stroke="none"/><circle cx="1200" cy="500" r="3" fill="#e9e2d0" stroke="none"/><circle cx="1200" cy="590" r="3" fill="#e9e2d0" stroke="none"/><circle cx="1200" cy="680" r="3" fill="#e9e2d0" stroke="none"/><circle cx="1200" cy="770" r="3" fill="#e9e2d0" stroke="none"/>
  </g>
  <rect x="80" y="120" width="64" height="8" rx="4" fill="url(#acc)"/>
  <text x="80" y="112" font-family="ui-monospace, Menlo, monospace" font-size="24" letter-spacing="2" fill="#9bb587">JAVA · FULL-STACK</text>
  <text x="76" y="360" font-family="Georgia, 'Times New Roman', serif" font-size="112" font-weight="700" fill="#f4efe3">Job Portal</text>
  <text x="80" y="430" font-family="Georgia, serif" font-size="34" fill="#c9c2b0" font-style="italic">AI-assisted candidate matching</text>
</svg>